{
	"asset":{
		"generator":"Khronos glTF Blender I/O v4.3.47",
		"version":"2.0"
	},
	"scene":0,
	"scenes":[
		{
			"name":"Scene",
			"nodes":[
				0
			]
		}
	],
	"nodes":[
		{
			"mesh":0,
			"name":"Street_Curve_4LaneShort"
		}
	],
	"materials":[
		{
			"doubleSided":true,
			"name":"MI_Asphalt",
			"normalTexture":{
				"index":0
			},
			"pbrMetallicRoughness":{
				"baseColorTexture":{
					"index":1
				},
				"metallicRoughnessTexture":{
					"index":2
				}
			}
		},
		{
			"alphaMode":"BLEND",
			"doubleSided":true,
			"name":"MI_StreetDecals",
			"pbrMetallicRoughness":{
				"baseColorTexture":{
					"index":3
				},
				"metallicFactor":0,
				"roughnessFactor":0.5
			}
		},
		{
			"doubleSided":true,
			"name":"MI_Trim_MetalConcrete",
			"normalTexture":{
				"index":4
			},
			"pbrMetallicRoughness":{
				"baseColorTexture":{
					"index":5
				},
				"metallicRoughnessTexture":{
					"index":6
				}
			}
		}
	],
	"meshes":[
		{
			"name":"Plane.099",
			"primitives":[
				{
					"attributes":{
						"POSITION":0,
						"NORMAL":1,
						"TEXCOORD_0":2,
						"TEXCOORD_1":3,
						"COLOR_0":4
					},
					"indices":5,
					"material":0
				},
				{
					"attributes":{
						"POSITION":6,
						"NORMAL":7,
						"TEXCOORD_0":8,
						"TEXCOORD_1":9,
						"COLOR_0":10
					},
					"indices":11,
					"material":1
				},
				{
					"attributes":{
						"POSITION":12,
						"NORMAL":13,
						"TEXCOORD_0":14,
						"TEXCOORD_1":15,
						"COLOR_0":16
					},
					"indices":17,
					"material":2
				}
			]
		}
	],
	"textures":[
		{
			"sampler":0,
			"source":0
		},
		{
			"sampler":0,
			"source":1
		},
		{
			"sampler":0,
			"source":2
		},
		{
			"sampler":0,
			"source":3
		},
		{
			"sampler":0,
			"source":4
		},
		{
			"sampler":0,
			"source":5
		},
		{
			"sampler":0,
			"source":6
		}
	],
	"images":[
		{
			"mimeType":"image/png",
			"name":"T_Concrete_Normal",
			"uri":"T_Concrete_Normal.png"
		},
		{
			"mimeType":"image/png",
			"name":"T_Concrete_Asphalt_BaseColor",
			"uri":"T_Concrete_Asphalt_BaseColor.png"
		},
		{
			"mimeType":"image/png",
			"name":"T_Concrete_ORM",
			"uri":"T_Concrete_ORM.png"
		},
		{
			"mimeType":"image/png",
			"name":"T_Street_Decals",
			"uri":"T_Street_Decals.png"
		},
		{
			"mimeType":"image/png",
			"name":"T_MetalConcrete_Normal",
			"uri":"T_MetalConcrete_Normal.png"
		},
		{
			"mimeType":"image/png",
			"name":"T_MetalConcrete_BaseColor",
			"uri":"T_MetalConcrete_BaseColor.png"
		},
		{
			"mimeType":"image/png",
			"name":"T_MetalConcrete_ORM",
			"uri":"T_MetalConcrete_ORM.png"
		}
	],
	"accessors":[
		{
			"bufferView":0,
			"componentType":5126,
			"count":38,
			"max":[
				16,
				-0.15000000596046448,
				16
			],
			"min":[
				-5.213461918174289e-06,
				-0.15000000596046448,
				0
			],
			"type":"VEC3"
		},
		{
			"bufferView":1,
			"componentType":5126,
			"count":38,
			"type":"VEC3"
		},
		{
			"bufferView":2,
			"componentType":5126,
			"count":38,
			"type":"VEC2"
		},
		{
			"bufferView":3,
			"componentType":5126,
			"count":38,
			"type":"VEC2"
		},
		{
			"bufferView":4,
			"componentType":5123,
			"count":38,
			"normalized":true,
			"type":"VEC4"
		},
		{
			"bufferView":5,
			"componentType":5123,
			"count":147,
			"type":"SCALAR"
		},
		{
			"bufferView":6,
			"componentType":5126,
			"count":76,
			"max":[
				14.799989700317383,
				-0.14600001275539398,
				14.80000114440918
			],
			"min":[
				-1.9073486328125e-06,
				-0.14800000190734863,
				-1.1444091796875e-05
			],
			"type":"VEC3"
		},
		{
			"bufferView":7,
			"componentType":5126,
			"count":76,
			"type":"VEC3"
		},
		{
			"bufferView":8,
			"componentType":5126,
			"count":76,
			"type":"VEC2"
		},
		{
			"bufferView":9,
			"componentType":5126,
			"count":76,
			"type":"VEC2"
		},
		{
			"bufferView":10,
			"componentType":5123,
			"count":76,
			"normalized":true,
			"type":"VEC4"
		},
		{
			"bufferView":11,
			"componentType":5123,
			"count":216,
			"type":"SCALAR"
		},
		{
			"bufferView":12,
			"componentType":5126,
			"count":627,
			"max":[
				17.999988555908203,
				2.682209014892578e-07,
				18
			],
			"min":[
				-2.86102294921875e-06,
				-0.15000024437904358,
				-1.1444091796875e-05
			],
			"type":"VEC3"
		},
		{
			"bufferView":13,
			"componentType":5126,
			"count":627,
			"type":"VEC3"
		},
		{
			"bufferView":14,
			"componentType":5126,
			"count":627,
			"type":"VEC2"
		},
		{
			"bufferView":15,
			"componentType":5126,
			"count":627,
			"type":"VEC2"
		},
		{
			"bufferView":16,
			"componentType":5123,
			"count":627,
			"normalized":true,
			"type":"VEC4"
		},
		{
			"bufferView":17,
			"componentType":5123,
			"count":1539,
			"type":"SCALAR"
		}
	],
	"bufferViews":[
		{
			"buffer":0,
			"byteLength":456,
			"byteOffset":0,
			"target":34962
		},
		{
			"buffer":0,
			"byteLength":456,
			"byteOffset":456,
			"target":34962
		},
		{
			"buffer":0,
			"byteLength":304,
			"byteOffset":912,
			"target":34962
		},
		{
			"buffer":0,
			"byteLength":304,
			"byteOffset":1216,
			"target":34962
		},
		{
			"buffer":0,
			"byteLength":304,
			"byteOffset":1520,
			"target":34962
		},
		{
			"buffer":0,
			"byteLength":294,
			"byteOffset":1824,
			"target":34963
		},
		{
			"buffer":0,
			"byteLength":912,
			"byteOffset":2120,
			"target":34962
		},
		{
			"buffer":0,
			"byteLength":912,
			"byteOffset":3032,
			"target":34962
		},
		{
			"buffer":0,
			"byteLength":608,
			"byteOffset":3944,
			"target":34962
		},
		{
			"buffer":0,
			"byteLength":608,
			"byteOffset":4552,
			"target":34962
		},
		{
			"buffer":0,
			"byteLength":608,
			"byteOffset":5160,
			"target":34962
		},
		{
			"buffer":0,
			"byteLength":432,
			"byteOffset":5768,
			"target":34963
		},
		{
			"buffer":0,
			"byteLength":7524,
			"byteOffset":6200,
			"target":34962
		},
		{
			"buffer":0,
			"byteLength":7524,
			"byteOffset":13724,
			"target":34962
		},
		{
			"buffer":0,
			"byteLength":5016,
			"byteOffset":21248,
			"target":34962
		},
		{
			"buffer":0,
			"byteLength":5016,
			"byteOffset":26264,
			"target":34962
		},
		{
			"buffer":0,
			"byteLength":5016,
			"byteOffset":31280,
			"target":34962
		},
		{
			"buffer":0,
			"byteLength":3078,
			"byteOffset":36296,
			"target":34963
		}
	],
	"samplers":[
		{
			"magFilter":9729,
			"minFilter":9987
		}
	],
	"buffers":[
		{
			"byteLength":39376,
			"uri":"Street_Curve_4LaneShort.bin"
		}
	]
}
